<?xml version="1.0" encoding="utf-8"?>
<!-- Generator: Adobe Illustrator 25.4.1, SVG Export Plug-In . SVG Version: 6.00 Build 0)  -->
<svg version="1.1" id="Livello_1" xmlns="http://www.w3.org/2000/svg" xmlns:xlink="http://www.w3.org/1999/xlink" x="0px" y="0px"
	 viewBox="0 0 833.52 580" style="enable-background:new 0 0 833.52 580;" xml:space="preserve">
<style type="text/css">
	.st0{fill:#AF275F;}
	.st1{fill:#009BB9;}
</style>
<path class="st0" d="M472.76,132.08c-6.79-7.51-27.54-23.47-40.95-34.02c-13.41-10.55-47.71-7.03-57.41-6.19
	c-5.06,0.44-23.07,0.79-39.17,1.03c2.08-3.95,4.15-9.41-0.62-12.22c-6.6-3.89-18.28-1.16-32.54-0.43s-48.58,1.66-68.68,0.77
	C213.3,80.15,59.1,78.08,61.68,97.96c0,0,9.24,8.12,9.68,13.16c0.44,5.04,0.44,11.76,1.28,15.94c0.84,4.17,4.69,11.9,5.28,16.83
	c0.59,4.93,0.15,21.59,0.79,29.59c0,0-7.38,18.02-3.72,31.88c0.49,1.86,2.05,3.25,3.95,3.54c6.62,0.99,23.21,2.89,37.07-0.49
	c17.75-4.33,55.95-7.1,70.34-7.81s162.46-3.3,174.24-13.72c0,0,1.15-4.35,0.04-10.06c33.4-0.96,132.56-2.32,139.3-9.3
	C507.76,159.4,479.55,139.6,472.76,132.08z"/>
<g>
	<path class="st1" d="M292.78,554.65c-1.18,0-2.33-0.29-3.38-0.86c-8.14-4.41-49.52-27.05-64.66-40.33
		c-9.59-8.41-24.6-17.26-43.61-28.47c-14.28-8.42-30.47-17.97-47.99-29.49c-40.41-26.55-85.91-85.33-86.37-85.92
		c-0.1-0.13-0.16-0.29-0.16-0.46l-0.53-181.35c-0.01-2.19,1.56-4.03,3.72-4.37l34.75-5.49c0.4-0.06,0.79,0.21,0.86,0.62
		c0.06,0.41-0.21,0.79-0.62,0.86l-34.75,5.49c-1.43,0.23-2.46,1.44-2.45,2.88l0.53,181.09c2.96,3.8,46.84,59.74,85.85,85.38
		c17.49,11.49,33.66,21.03,47.93,29.45c19.07,11.25,34.14,20.13,43.84,28.64c15.02,13.17,56.27,35.75,64.38,40.14
		c0.98,0.53,2.09,0.76,3.19,0.65c25.05-2.37,246.93-23.58,323.3-38.25c71.71-13.77,176.54-37.08,196.83-41.61
		c2.55-0.57,4.34-2.88,4.26-5.49l-7.32-249.84c-0.08-2.8-2.14-5.2-4.89-5.72l-295.14-55.09c-0.41-0.08-0.68-0.47-0.6-0.88
		c0.08-0.41,0.46-0.68,0.88-0.6l295.14,55.09c3.44,0.64,6.01,3.65,6.12,7.15l7.32,249.84c0.1,3.33-2.19,6.28-5.44,7
		c-20.29,4.53-125.14,27.85-196.87,41.62c-76.44,14.67-298.38,35.89-323.44,38.27C293.22,554.64,293,554.65,292.78,554.65z"/>
	<path class="st1" d="M46.81,272.59c-0.12,0-0.23-0.03-0.34-0.08l-31.39-16.17c-0.37-0.19-0.51-0.64-0.32-1.01
		c0.19-0.37,0.64-0.51,1.01-0.32l31.39,16.17c0.37,0.19,0.51,0.64,0.32,1.01C47.34,272.44,47.08,272.59,46.81,272.59z"/>
	<path class="st1" d="M47.78,322.09c-0.12,0-0.24-0.03-0.35-0.08l-32.12-16.75c-0.37-0.19-0.51-0.64-0.32-1.01
		c0.19-0.37,0.65-0.51,1.01-0.32l32.12,16.75c0.37,0.19,0.51,0.64,0.32,1.01C48.31,321.94,48.05,322.09,47.78,322.09z"/>
	<path class="st1" d="M47.04,368.02C47.04,368.02,47.04,368.02,47.04,368.02l-24.28-0.08c-0.79,0-1.54-0.17-2.25-0.5l-2.69-1.25
		c-1.9-0.88-3.12-2.8-3.12-4.89L14.33,33.96c-0.01-6.8,5.31-12.27,12.11-12.44L478.7,9.97c3.39-0.07,6.55,1.16,8.97,3.5
		c2.42,2.34,3.76,5.49,3.78,8.86l0.59,107.68c0,0.41-0.33,0.75-0.75,0.75c0,0,0,0,0,0c-0.41,0-0.75-0.33-0.75-0.75l-0.59-107.68
		c-0.02-2.96-1.2-5.73-3.32-7.79c-2.13-2.06-4.95-3.16-7.89-3.08L26.48,23.02c-5.98,0.15-10.66,4.96-10.65,10.94l0.36,327.34
		c0,1.51,0.89,2.9,2.26,3.53l2.69,1.25c0.51,0.24,1.06,0.36,1.63,0.36l24.28,0.08c0.41,0,0.75,0.34,0.75,0.75
		C47.79,367.69,47.45,368.02,47.04,368.02z"/>
	<path class="st1" d="M294.39,279.38c-3.28,0-6.56-0.6-9.63-1.79L50.42,187.13c-0.39-0.15-0.58-0.58-0.43-0.97s0.58-0.58,0.97-0.43
		l234.35,90.46c3.89,1.5,8.14,2.02,12.27,1.49l509.1-64.81c0.42-0.05,0.79,0.24,0.84,0.65c0.05,0.41-0.24,0.79-0.65,0.84
		l-509.1,64.81C296.65,279.31,295.52,279.38,294.39,279.38z"/>
	<path class="st1" d="M290.9,394.06c-0.41,0-0.75-0.34-0.75-0.75V281.29c0-0.41,0.34-0.75,0.75-0.75s0.75,0.34,0.75,0.75v112.02
		C291.65,393.73,291.32,394.06,290.9,394.06z"/>
	<path class="st1" d="M290.54,505.91c-0.41,0-0.75-0.34-0.75-0.75v-78.64c0-0.41,0.34-0.75,0.75-0.75s0.75,0.34,0.75,0.75v78.64
		C291.29,505.57,290.95,505.91,290.54,505.91z"/>
	<path class="st1" d="M295.11,570.03c-0.4,0-0.79-0.08-1.15-0.23l-11.58-4.75c-1.13-0.46-1.87-1.55-1.88-2.77l-0.17-13.63
		c-0.01-0.41,0.33-0.75,0.74-0.76c0.41-0.05,0.75,0.33,0.76,0.74l0.17,13.63c0.01,0.62,0.38,1.17,0.95,1.4l11.58,4.75
		c0.23,0.09,0.47,0.13,0.72,0.11l30.68-2.79c0.79-0.07,1.39-0.73,1.39-1.53v-13.58c0-0.41,0.34-0.75,0.75-0.75s0.75,0.34,0.75,0.75
		v13.58c0,1.58-1.19,2.88-2.76,3.02l-30.68,2.79C295.29,570.03,295.2,570.03,295.11,570.03z"/>
	<path class="st1" d="M782.68,498.66c-0.31,0-0.62-0.05-0.91-0.15l-10.5-3.5c-1.19-0.4-1.98-1.5-1.98-2.75v-8.35
		c0-0.41,0.34-0.75,0.75-0.75s0.75,0.34,0.75,0.75v8.35c0,0.6,0.38,1.14,0.96,1.33l10.5,3.5c0.25,0.08,0.52,0.09,0.77,0.03
		l29.21-7.14c0.63-0.15,1.07-0.71,1.07-1.36v-14.9c0-0.41,0.34-0.75,0.75-0.75s0.75,0.34,0.75,0.75v14.9c0,1.34-0.91,2.5-2.21,2.82
		l-29.21,7.14C783.15,498.63,782.91,498.66,782.68,498.66z"/>
	<path class="st1" d="M27.38,262.22c-0.41,0-0.74-0.33-0.75-0.74l-1.13-82.16c-0.01-0.79,0.37-1.53,1.02-1.97
		c0.65-0.45,1.47-0.54,2.21-0.25l19.33,7.67c0.39,0.15,0.57,0.59,0.42,0.97c-0.15,0.39-0.59,0.57-0.97,0.42l-19.33-7.67
		c-0.27-0.11-0.56-0.07-0.8,0.09c-0.24,0.17-0.37,0.43-0.37,0.72l1.13,82.16c0.01,0.41-0.33,0.75-0.74,0.76
		C27.39,262.22,27.38,262.22,27.38,262.22z"/>
	<path class="st1" d="M28.37,178.44c-0.36,0-0.68-0.27-0.74-0.64c-0.06-0.41,0.22-0.79,0.63-0.86l58.6-9.02
		c0.41-0.06,0.79,0.22,0.86,0.63c0.06,0.41-0.22,0.79-0.63,0.86l-58.6,9.02C28.44,178.44,28.41,178.44,28.37,178.44z"/>
	<path class="st1" d="M107.75,201.07c-8.03,0-15.16-0.88-18.92-1.44c-2.21-0.33-4-1.94-4.57-4.09c-3.54-13.39,2.89-30.21,3.68-32.19
		c-0.31-4.08-0.36-10.16-0.4-16.04c-0.04-5.63-0.08-10.95-0.37-13.34c-0.32-2.71-1.67-6.3-2.97-9.78c-0.99-2.64-1.92-5.13-2.3-6.99
		c-0.55-2.76-0.75-6.58-0.93-10.28c-0.1-2.05-0.2-3.98-0.35-5.74c-0.41-4.68-9.34-12.58-9.43-12.66c-0.14-0.12-0.23-0.29-0.25-0.47
		c-0.19-1.44,0.31-2.81,1.46-4.07c6.41-6.99,34.76-11.47,84.24-13.34c38.53-1.45,77.64-0.76,86.78-0.36
		c20.3,0.89,54.7-0.06,68.61-0.77c3.8-0.19,7.36-0.53,10.8-0.85c9.56-0.89,17.11-1.59,22.15,1.38c6.32,3.72,1.88,11.55-0.25,15.31
		c-0.34,0.6-0.64,1.13-0.84,1.53c-0.56,1.14,0.05,3.64,0.83,6.8c0.99,4.03,2.35,9.56,2.29,16.2c-0.11,11.71,1.64,14.24,7.71,21.2
		c4.37,5.01,6.54,13.19,7.45,17.63c0.38,1.88,1.26,3.59,2.52,4.95c9.86,10.59,6.75,22.87,6.62,23.39c-0.04,0.14-0.12,0.27-0.23,0.37
		c-10.28,9.1-119.68,12.27-160.86,13.47c-6.83,0.2-11.77,0.34-13.85,0.44c-12.44,0.61-52.02,3.35-70.2,7.79
		C120.21,200.58,113.72,201.07,107.75,201.07z M72.4,87.59c1.47,1.33,9.28,8.58,9.7,13.46c0.16,1.79,0.26,3.82,0.36,5.79
		c0.18,3.64,0.37,7.41,0.91,10.06c0.35,1.74,1.26,4.18,2.23,6.76c1.33,3.56,2.71,7.23,3.05,10.13c0.29,2.47,0.33,7.83,0.38,13.51
		c0.04,5.94,0.09,12.09,0.41,16.11c0.01,0.12-0.01,0.23-0.05,0.34c-0.07,0.18-7.24,17.95-3.69,31.4c0.42,1.57,1.73,2.75,3.34,2.99
		c6.48,0.97,23.03,2.88,36.78-0.47c18.29-4.46,58.01-7.21,70.49-7.83c2.09-0.1,7.04-0.25,13.88-0.44
		c36.9-1.07,148.75-4.32,159.73-12.94c0.36-1.68,2.26-12.55-6.31-21.76c-1.45-1.56-2.45-3.52-2.89-5.67
		c-0.88-4.29-2.97-12.2-7.11-16.94c-6.23-7.14-8.19-9.98-8.08-22.2c0.06-6.45-1.27-11.87-2.25-15.83c-0.92-3.73-1.52-6.19-0.72-7.82
		c0.21-0.43,0.52-0.98,0.88-1.61c2.83-4.99,5.46-10.54,0.8-13.28c-4.63-2.73-11.97-2.04-21.25-1.18c-3.46,0.32-7.04,0.66-10.87,0.85
		c-13.93,0.71-48.4,1.67-68.75,0.77c-9.13-0.4-48.18-1.09-86.66,0.36C108.32,73.97,79.56,78.41,73.51,85
		C72.73,85.85,72.37,86.7,72.4,87.59z"/>
	<path class="st1" d="M370.91,167.75c-0.38,0-0.7-0.28-0.74-0.66c-0.05-0.41,0.25-0.78,0.66-0.83c2.41-0.28,11.8-0.51,24.79-0.82
		c35.1-0.85,108.14-2.6,113.79-8.45c0.82-0.85,1.2-1.86,1.14-3.08c-0.27-6.38-11.82-16.48-20.25-23.85c-3.43-3-6.39-5.58-8.08-7.46
		c-5.9-6.53-22.35-19.42-35.57-29.78c-1.85-1.45-3.63-2.84-5.29-4.15c-12.64-9.95-44.98-7.08-55.6-6.14l-1.28,0.11
		c-9.61,0.83-37.65,1.82-37.93,1.83c-0.44,0.03-0.76-0.31-0.78-0.72c-0.01-0.41,0.31-0.76,0.72-0.78
		c0.28-0.01,28.28-0.99,37.85-1.82l1.28-0.11c11.91-1.06,43.55-3.86,56.66,6.46c1.66,1.31,3.44,2.7,5.29,4.15
		c13.26,10.39,29.77,23.33,35.76,29.95c1.64,1.81,4.57,4.37,7.96,7.34c9.12,7.97,20.47,17.89,20.76,24.91
		c0.07,1.63-0.46,3.04-1.57,4.19c-5.61,5.81-62.21,7.65-114.83,8.91c-12.96,0.31-22.31,0.54-24.65,0.81
		C370.96,167.75,370.93,167.75,370.91,167.75z"/>
</g>
</svg>
