<svg width="1875" height="171" viewBox="0 0 1875 171" fill="none" xmlns="http://www.w3.org/2000/svg">
<path d="M682.044 0.124054H511.744V169.884H682.044V0.124054Z" fill="white"/>
<path d="M1192.94 0.124054H1022.64V169.414H1192.94V0.124054Z" fill="#009BB9"/>
<path d="M171.154 0.124054H0.854004V170.424H171.154V0.124054Z" fill="#D82D6B"/>
<path d="M1363.24 0.124054H1192.94V170.424H1363.24V0.124054Z" fill="#009BB9"/>
<path d="M1533.53 0.124054H1363.23V170.424H1533.53V0.124054Z" fill="white"/>
<path fill-rule="evenodd" clip-rule="evenodd" d="M86.0188 170.42C132.919 170.42 171.144 132.124 171.144 85.2441C171.144 38.3641 132.894 0.134064 86.004 0.134064C39.114 0.134064 0.854004 38.3641 0.854004 85.2541C0.854004 132.144 39.1188 170.42 86.0188 170.42Z" fill="#009BB9"/>
<path fill-rule="evenodd" clip-rule="evenodd" d="M86.0041 126.554C108.764 126.554 127.324 107.994 127.324 85.2441C127.324 62.4941 108.764 43.9341 86.0041 43.9341C63.2441 43.9341 44.6841 62.4941 44.6841 85.2441C44.6841 107.994 63.2441 126.554 86.0041 126.554Z" fill="white"/>
<path d="M1703.83 0.124054H1533.53V170.424H1703.83V0.124054Z" fill="#009BB9"/>
<path fill-rule="evenodd" clip-rule="evenodd" d="M1618.69 170.384C1665.59 170.384 1703.83 132.144 1703.83 85.2641C1703.83 38.3841 1665.59 0.154053 1618.69 0.154053C1571.79 0.154053 1533.54 38.3941 1533.54 85.2741C1533.54 132.154 1571.79 170.394 1618.69 170.394V170.384Z" fill="white"/>
<path fill-rule="evenodd" clip-rule="evenodd" d="M1618.68 126.854C1641.44 126.854 1660 108.294 1660 85.5441C1660 62.7941 1641.44 44.2341 1618.68 44.2341C1595.92 44.2341 1577.36 62.7941 1577.36 85.5441C1577.36 108.294 1595.92 126.854 1618.68 126.854Z" fill="#D82D6B"/>
<path d="M341.444 85.274L341.444 170.424L256.294 170.424C256.294 123.434 294.444 85.274 341.444 85.274Z" fill="white"/>
<path fill-rule="evenodd" clip-rule="evenodd" d="M171.154 168.578V0.124054H341.444C248.07 0.124054 172.155 75.4371 171.154 168.578ZM171.154 170.424V168.578C171.147 169.193 171.144 169.808 171.144 170.424H171.154ZM256.294 170.424L256.304 170.424H341.444H341.454V0.124054H341.444L341.444 85.274C294.444 85.274 256.294 123.434 256.294 170.424Z" fill="white"/>
<path d="M341.444 85.274L341.444 0.124054C248.07 0.124054 172.155 75.4371 171.154 168.578V170.424L256.294 170.424C256.294 123.434 294.444 85.274 341.444 85.274Z" fill="#D82D6B"/>
<path d="M426.594 170.424H341.444L341.444 85.2741C388.434 85.2741 426.594 123.424 426.594 170.424Z" fill="#D82D6B"/>
<path fill-rule="evenodd" clip-rule="evenodd" d="M341.444 0.124084H511.744V170.424C511.744 76.4341 435.434 0.124084 341.444 0.124084ZM341.444 85.2741L341.444 170.424H426.594C426.594 123.424 388.434 85.2741 341.444 85.2741Z" fill="#D82D6B"/>
<path d="M341.444 0.124084L341.444 85.2741C388.434 85.2741 426.594 123.424 426.594 170.424H511.744C511.744 76.4341 435.434 0.124084 341.444 0.124084Z" fill="white"/>
<path d="M852.344 0.124084V170.424H1022.64V0.124084H852.344Z" fill="#D82D6B"/>
<path d="M852.344 0.124084H1022.64V170.424C928.654 170.424 852.344 94.1141 852.344 0.124084Z" fill="#009BB9"/>
<path d="M852.344 0.124062L767.194 0.124054C767.184 47.1141 729.034 85.2741 682.044 85.2741L682.044 170.424C776.034 170.424 852.334 94.1141 852.344 0.124062Z" fill="white"/>
<path d="M767.194 0.124054L682.044 0.124062L682.044 85.2741C729.034 85.2741 767.184 47.1141 767.194 0.124054Z" fill="#009BB9"/>
<path d="M682.044 170.424H852.344V0.124062C852.334 94.1141 776.034 170.424 682.044 170.424Z" fill="#D82D6B"/>
<path d="M511.744 0.124054H596.894C596.894 47.1141 558.744 85.2741 511.744 85.2741V0.124054Z" fill="#009BB9"/>
<path d="M596.894 0.124054H682.044V85.2741C635.054 85.2741 596.894 47.1241 596.894 0.124054Z" fill="#009BB9"/>
<path d="M511.744 85.274C558.734 85.274 596.894 123.424 596.894 170.424H511.744V85.274Z" fill="#009BB9"/>
<path d="M682.044 85.274V170.424H596.894C596.894 123.434 635.044 85.274 682.044 85.274Z" fill="#009BB9"/>
<path d="M937.494 0.124069H1022.64L1107.79 0.124054C1107.79 47.1141 1069.64 85.274 1022.64 85.274C975.654 85.274 937.494 47.1241 937.494 0.124069Z" fill="white"/>
<path d="M1107.79 0.124054H1192.94V85.2741C1145.95 85.2741 1107.79 47.1241 1107.79 0.124054Z" fill="white"/>
<path d="M1022.64 85.274C1069.63 85.274 1107.79 123.424 1107.79 170.424H1022.64V85.274Z" fill="white"/>
<path d="M1192.94 85.274V170.424H1107.79C1107.79 123.434 1145.94 85.274 1192.94 85.274Z" fill="white"/>
<path d="M1873.7 0.0940552H1703.83V170.394H1873.7V0.0940552Z" fill="#D82D6B"/>
<path d="M1703.83 0.124054H1788.98C1788.98 47.1141 1750.83 85.2741 1703.83 85.2741V0.124054Z" fill="white"/>
<path d="M1788.98 0.124054H1874.13V85.2741C1827.14 85.2741 1788.98 47.1241 1788.98 0.124054Z" fill="white"/>
<path d="M1703.83 85.274C1750.82 85.274 1788.98 123.424 1788.98 170.424H1703.83V85.274Z" fill="white"/>
<path d="M1874.13 85.274V170.424H1788.98C1788.98 123.434 1827.13 85.274 1874.13 85.274Z" fill="white"/>
<path fill-rule="evenodd" clip-rule="evenodd" d="M1278.09 170.384C1324.99 170.384 1363.23 132.144 1363.23 85.2641C1363.23 38.3841 1324.98 0.154053 1278.09 0.154053C1231.2 0.154053 1192.94 38.3941 1192.94 85.2741C1192.94 132.154 1231.19 170.394 1278.09 170.394V170.384Z" fill="#D82D6B"/>
<path d="M1448.65 0.124054H1533.53V170.424H1448.65C1401.51 170.424 1363.24 132.273 1363.24 85.279C1363.24 38.2753 1401.51 0.124054 1448.65 0.124054Z" fill="#D82D6B"/>
</svg>
